# xmcd CD database file
#
# Track frame offsets:
#	150
#	31283
#	60731
#	74071
#	101734
#	118708
#	137939
#	165502
#	209260
#
# Disc length: 3446 seconds
#
# Revision: 0
# Processed by: cddbd v1.5.2PL0 Copyright (c) Steve Scherf et al.
# Submitted via: CDex 1.51
#
DISCID=870d7409
DTITLE=Kitaro - Celedtial Scenery 02-Silent Praying
DYEAR=2011
DGENRE=New Age
TTITLE0=Thinking Of You
TTITLE1=Koi
TTITLE2=A Drop Of Silence
TTITLE3=Nageki (live)
TTITLE4=Peace
TTITLE5=Tenku
TTITLE6=Cosmic Love
TTITLE7=Island Of Life
TTITLE8=Heaven And Earth (live)
EXTD=YEAR: 2011
EXTT0=
EXTT1=
EXTT2=
EXTT3=
EXTT4=
EXTT5=
EXTT6=
EXTT7=
EXTT8=
PLAYORDER=
